<?xml version="1.0" encoding="UTF-8" standalone="no"?>
<svg
   xmlns:dc="http://purl.org/dc/elements/1.1/"
   xmlns:cc="http://creativecommons.org/ns#"
   xmlns:rdf="http://www.w3.org/1999/02/22-rdf-syntax-ns#"
   xmlns:svg="http://www.w3.org/2000/svg"
   xmlns="http://www.w3.org/2000/svg"
   xmlns:sodipodi="http://sodipodi.sourceforge.net/DTD/sodipodi-0.dtd"
   xmlns:inkscape="http://www.inkscape.org/namespaces/inkscape"
   inkscape:version="1.0 (4035a4fb49, 2020-05-01)"
   sodipodi:docname="Saskatoon Star-Phoenix (2016-07-29).svg"
   id="svg15782"
   version="1.2"
   viewBox="0 0 300 300.0203"
   height="300.02029pt"
   width="300pt">
  <metadata
     id="metadata15786">
    <rdf:RDF>
      <cc:Work
         rdf:about="">
        <dc:format>image/svg+xml</dc:format>
        <dc:type
           rdf:resource="http://purl.org/dc/dcmitype/StillImage" />
        <dc:title></dc:title>
      </cc:Work>
    </rdf:RDF>
  </metadata>
  <sodipodi:namedview
     inkscape:current-layer="svg15782"
     inkscape:window-maximized="1"
     inkscape:window-y="-8"
     inkscape:window-x="-8"
     inkscape:cy="200.01352"
     inkscape:cx="200"
     inkscape:zoom="1.657388"
     fit-margin-bottom="0"
     fit-margin-right="0"
     fit-margin-left="0"
     fit-margin-top="0"
     showgrid="false"
     id="namedview15784"
     inkscape:window-height="837"
     inkscape:window-width="1600"
     inkscape:pageshadow="2"
     inkscape:pageopacity="0"
     guidetolerance="10"
     gridtolerance="10"
     objecttolerance="10"
     borderopacity="1"
     bordercolor="#666666"
     pagecolor="#ffffff" />
  <defs
     id="defs15773" />
  <path
     id="path19895"
     d="M 0,300.02028 H 300 V 0 H 0 Z m 0,0"
     style="fill:#bf3368;fill-opacity:1;fill-rule:nonzero;stroke:none;stroke-width:1.29881" />
  <path
     id="path19897"
     d="m 107.76073,149.98732 82.69267,134.54363 h 94.01667 V 15.42846 H 190.4534 Z m 0,0"
     style="fill:#7d173f;fill-opacity:1;fill-rule:nonzero;stroke:none;stroke-width:1.29881" />
  <path
     id="path19899"
     d="m 22.079789,221.54877 c 0.517495,8.21395 5.108995,12.64818 11.202245,12.64818 5.164804,0 8.624918,-3.35357 8.624918,-8.00088 0,-1.90763 -0.725508,-3.60724 -2.222184,-4.95172 -1.907629,-1.65902 -4.850248,-2.22725 -8.878592,-2.99842 -6.402733,-1.23794 -9.396087,-3.82034 -9.396087,-10.01505 0,-6.61074 4.12474,-10.74056 10.116522,-10.74056 4.799512,0 8.005952,2.84115 8.827856,2.89188 0.725507,0.0508 1.192267,-0.25875 1.192267,-1.80615 h 0.6697 v 10.63401 h -0.6697 c -0.877712,-7.02169 -4.703115,-10.63401 -10.223063,-10.63401 -4.753852,0 -7.336254,2.94261 -7.336254,6.97095 0,2.68388 1.187196,4.12474 2.73968,4.95172 1.395208,0.77624 4.647309,1.1872 8.827857,2.17145 6.19472,1.49668 8.985135,4.74878 8.985135,10.74056 0,7.12316 -4.439296,11.82121 -11.202246,11.82121 -5.007526,0 -8.36617,-2.57732 -9.964316,-2.57732 -0.674773,0 -1.243004,0.51748 -1.293738,1.85688 h -0.725508 v -12.96273 z m 0,0"
     style="fill:#ffffff;fill-opacity:1;fill-rule:nonzero;stroke:#ffffff;stroke-width:0.641613;stroke-linecap:butt;stroke-linejoin:miter;stroke-miterlimit:10;stroke-opacity:1" />
  <path
     id="path19901"
     d="m 58.644365,224.80594 -3.89136,-12.57717 -4.24143,12.57717 z m -14.855152,9.07645 h 0.55301 c 1.882261,0 2.43527,-0.70521 2.983206,-2.51644 l 8.569109,-24.71292 h 1.451016 l 8.766976,27.22936 h 2.35917 v 0.62911 H 58.370397 v -0.62911 h 3.181073 l -2.633137,-8.21396 h -8.721314 l -2.161302,6.48391 c -0.512422,1.64888 0.390657,1.64888 2.790413,1.73005 v 0.62911 h -7.036917 z m 0,0"
     style="fill:#ffffff;fill-opacity:1;fill-rule:nonzero;stroke:#ffffff;stroke-width:0.801366;stroke-linecap:butt;stroke-linejoin:miter;stroke-miterlimit:10;stroke-opacity:1" />
  <path
     id="path19903"
     d="m 69.89227,224.64865 c 0.39573,6.25053 3.89136,9.6244 8.52852,9.6244 3.92688,0 6.56002,-2.55195 6.56002,-6.08818 0,-1.45608 -0.54795,-2.75489 -1.68947,-3.77467 -1.45609,-1.25822 -3.6935,-1.68946 -6.75281,-2.27291 -4.87561,-0.94367 -7.15868,-2.91219 -7.15868,-7.62544 0,-5.03289 3.14556,-8.17338 7.70154,-8.17338 3.65798,0 6.09325,2.15622 6.72237,2.19681 0.55301,0.0405 0.90308,-0.19278 0.90308,-1.37491 h 0.51242 v 8.09728 h -0.51242 c -0.6697,-5.34745 -3.57681,-8.09728 -7.78272,-8.09728 -3.61232,0 -5.58083,2.23741 -5.58083,5.30686 0,2.04462 0.90815,3.14049 2.0852,3.7696 1.06036,0.59359 3.53622,0.90815 6.71729,1.65395 5.57575,1.34448 6.83905,3.40938 6.83905,8.1683 0,5.42863 -3.37894,9.00036 -8.52345,9.00036 -3.81526,0 -6.36722,-1.96344 -7.58485,-1.96344 -0.51242,0 -0.94874,0.39066 -0.98426,1.41043 h -0.55301 v -9.85778 z m 0,0"
     style="fill:#ffffff;fill-opacity:1;fill-rule:nonzero;stroke:#ffffff;stroke-width:0.801366;stroke-linecap:butt;stroke-linejoin:miter;stroke-miterlimit:10;stroke-opacity:1" />
  <path
     id="path19905"
     d="m 98.7756,233.88239 v 0.62911 h -9.89836 v -0.62911 h 2.67372 v -26.29078 h -2.67372 v -0.6291 h 9.89836 v 0.6291 h -2.97306 v 12.74967 c 0,0 5.29164,-5.71275 8.59448,-9.44683 0.62911,-0.70521 1.68947,-1.9685 1.68947,-2.44035 0,-0.86249 -0.98425,-0.86249 -3.46011,-0.86249 v -0.6291 h 9.86791 v 0.6291 c -3.81526,0 -4.16533,0.19788 -7.11302,3.46011 -2.1613,2.39469 -5.37282,6.03238 -5.37282,6.03238 l 10.47675,16.79829 h 3.61738 v 0.62911 h -11.20224 v -0.62911 h 2.95276 l -8.56911,-14.14993 -1.63366,1.76556 v 12.38437 z m 0,0"
     style="fill:#ffffff;fill-opacity:1;fill-rule:nonzero;stroke:#ffffff;stroke-width:0.801366;stroke-linecap:butt;stroke-linejoin:miter;stroke-miterlimit:10;stroke-opacity:1" />
  <path
     id="path19907"
     d="m 125.04101,224.80594 -3.89137,-12.57717 -4.24142,12.57717 z m -14.85515,9.07645 h 0.54793 c 1.88734,0 2.44035,-0.70521 2.98828,-2.51644 l 8.56911,-24.71292 h 1.45102 l 8.7619,27.22936 h 2.35917 v 0.62911 h -10.09623 v -0.62911 h 3.176 l -2.62807,-8.21396 h -8.72131 l -2.1613,6.48391 c -0.5175,1.64888 0.39066,1.64888 2.79042,1.73005 v 0.62911 h -7.03692 z m 0,0"
     style="fill:#ffffff;fill-opacity:1;fill-rule:nonzero;stroke:#ffffff;stroke-width:0.801366;stroke-linecap:butt;stroke-linejoin:miter;stroke-miterlimit:10;stroke-opacity:1" />
  <path
     id="path19909"
     d="m 154.07147,215.36926 h -0.5936 c 0,-2.47078 -0.86249,-4.74878 -1.72499,-5.84972 -1.01976,-1.21763 -2.39468,-1.92793 -5.81928,-1.92793 h -1.14153 v 26.29078 h 3.10497 v 0.62911 H 137.1717 v -0.62911 h 3.18107 v -26.29078 h -1.06036 c -3.41952,0 -4.98723,0.75089 -5.97148,1.92793 -0.86756,1.10094 -1.73005,3.53621 -1.73005,5.84972 h -0.58853 v -8.40675 h 23.06912 z m 0,0"
     style="fill:#ffffff;fill-opacity:1;fill-rule:nonzero;stroke:#ffffff;stroke-width:0.801366;stroke-linecap:butt;stroke-linejoin:miter;stroke-miterlimit:10;stroke-opacity:1" />
  <path
     id="path19911"
     d="m 169.77896,207.15529 c -4.99738,0 -8.493,3.06947 -8.493,13.56142 0,10.57314 3.46011,13.55634 8.493,13.55634 5.06334,0 8.48286,-3.02379 8.48286,-13.55634 0,-10.49195 -3.41952,-13.56142 -8.48286,-13.56142 m 0,27.86864 c -6.2556,0 -13.24686,-4.87562 -13.24686,-14.30722 0,-9.4316 6.99126,-14.30214 13.27731,-14.30214 6.25053,0 13.24686,4.83503 13.24686,14.30214 0,9.4316 -6.99633,14.30722 -13.27731,14.30722"
     style="fill:#ffffff;fill-opacity:1;fill-rule:nonzero;stroke:none;stroke-width:1.29881" />
  <path
     id="path19913"
     d="m 169.77896,207.15529 c -4.99738,0 -8.493,3.06947 -8.493,13.56142 0,10.57314 3.46011,13.55634 8.493,13.55634 5.06334,0 8.48286,-3.02379 8.48286,-13.55634 0,-10.49195 -3.41952,-13.56142 -8.48286,-13.56142 z m 0,27.86864 c -6.2556,0 -13.24686,-4.87562 -13.24686,-14.30722 0,-9.4316 6.99126,-14.30214 13.27731,-14.30214 6.25053,0 13.24686,4.83503 13.24686,14.30214 0,9.4316 -6.99633,14.30722 -13.27731,14.30722 z m 0,0"
     style="fill:none;stroke:#ffffff;stroke-width:0.801366;stroke-linecap:butt;stroke-linejoin:miter;stroke-miterlimit:10;stroke-opacity:1" />
  <path
     id="path19915"
     d="m 199.62117,207.15529 c -4.9923,0 -8.48792,3.06947 -8.48792,13.56142 0,10.57314 3.46011,13.55634 8.48792,13.55634 5.06842,0 8.48794,-3.02379 8.48794,-13.55634 0,-10.49195 -3.41952,-13.56142 -8.48794,-13.56142 m 0,27.86864 c -6.25052,0 -13.24178,-4.87562 -13.24178,-14.30722 0,-9.4316 6.99126,-14.30214 13.28237,-14.30214 6.24546,0 13.39399,4.83503 13.39399,14.30214 0,9.4316 -7.14853,14.30722 -13.43458,14.30722"
     style="fill:#ffffff;fill-opacity:1;fill-rule:nonzero;stroke:none;stroke-width:1.29881" />
  <path
     id="path19917"
     d="m 199.62117,207.15529 c -4.9923,0 -8.48792,3.06947 -8.48792,13.56142 0,10.57314 3.46011,13.55634 8.48792,13.55634 5.06842,0 8.48794,-3.02379 8.48794,-13.55634 0,-10.49195 -3.41952,-13.56142 -8.48794,-13.56142 z m 0,27.86864 c -6.25052,0 -13.24178,-4.87562 -13.24178,-14.30722 0,-9.4316 6.99126,-14.30214 13.28237,-14.30214 6.24546,0 13.39399,4.83503 13.39399,14.30214 0,9.4316 -7.14853,14.30722 -13.43458,14.30722 z m 0,0"
     style="fill:none;stroke:#ffffff;stroke-width:0.801366;stroke-linecap:butt;stroke-linejoin:miter;stroke-miterlimit:10;stroke-opacity:1" />
  <path
     id="path19919"
     d="m 221.18854,233.92298 v 0.58852 h -7.62037 v -0.58852 c 2.79042,-0.19786 3.06439,-0.7458 3.06439,-3.26733 v -22.31823 l -0.62912,-0.74581 h -2.43527 v -0.6291 h 7.66604 l 13.07943,19.37055 v -15.56037 c 0,-2.63313 -0.39066,-3.02379 -3.41446,-3.18108 v -0.6291 h 7.57979 v 0.6291 c -2.78534,0.19788 -3.29776,0.7103 -3.29776,3.22167 v 23.89102 h -0.74581 l -16.93527,-25.22534 v 21.25787 c 0,2.59256 0.46675,3.02888 3.68841,3.18615"
     style="fill:#ffffff;fill-opacity:1;fill-rule:nonzero;stroke:none;stroke-width:1.29881" />
  <path
     id="path19921"
     d="m 221.18854,233.92298 v 0.58852 h -7.62037 v -0.58852 c 2.79042,-0.19786 3.06439,-0.7458 3.06439,-3.26733 v -22.31823 l -0.62912,-0.74581 h -2.43527 v -0.6291 h 7.66604 l 13.07943,19.37055 v -15.56037 c 0,-2.63313 -0.39066,-3.02379 -3.41446,-3.18108 v -0.6291 h 7.57979 v 0.6291 c -2.78534,0.19788 -3.29776,0.7103 -3.29776,3.22167 v 23.89102 h -0.74581 l -16.93527,-25.22534 v 21.25787 c 0,2.59256 0.46675,3.02888 3.68841,3.18615 z m 0,0"
     style="fill:none;stroke:#ffffff;stroke-width:0.801366;stroke-linecap:butt;stroke-linejoin:miter;stroke-miterlimit:10;stroke-opacity:1" />
  <path
     id="path19923"
     d="m 22.079789,264.60232 c 0.517495,8.2089 5.108995,12.64818 11.202245,12.64818 5.164804,0 8.624918,-3.35863 8.624918,-8.00595 0,-1.90763 -0.725508,-3.61232 -2.222184,-4.95678 -1.907629,-1.64889 -4.850248,-2.22219 -8.878592,-2.99336 -6.402733,-1.23793 -9.396087,-3.82033 -9.396087,-10.01505 0,-6.61074 4.12474,-10.74056 10.116522,-10.74056 4.799512,0 8.005952,2.84115 8.827856,2.89188 0.725507,0.0508 1.192267,-0.25875 1.192267,-1.80615 h 0.6697 v 10.63402 h -0.6697 c -0.877712,-7.0217 -4.703115,-10.63402 -10.223063,-10.63402 -4.753852,0 -7.336254,2.94261 -7.336254,6.97095 0,2.68388 1.187196,4.12982 2.73968,4.9568 1.395208,0.77117 4.647309,1.18719 8.827857,2.16638 6.19472,1.49667 8.985135,4.75385 8.985135,10.74055 0,7.12318 -4.439296,11.82121 -11.202246,11.82121 -5.007526,0 -8.36617,-2.57732 -9.964316,-2.57732 -0.674773,0 -1.243004,0.5175 -1.293738,1.8569 h -0.725508 v -12.95768 z m 0,0"
     style="fill:#ffffff;fill-opacity:1;fill-rule:nonzero;stroke:#ffffff;stroke-width:0.641613;stroke-linecap:butt;stroke-linejoin:miter;stroke-miterlimit:10;stroke-opacity:1" />
  <path
     id="path19925"
     d="m 68.98412,258.42282 h -0.58853 c 0,-2.47586 -0.86249,-4.75892 -1.72498,-5.85987 -1.02484,-1.21256 -2.40483,-1.92285 -5.819281,-1.92285 h -1.141533 v 26.29078 h 3.099897 V 277.56 H 52.084354 v -0.62912 h 3.181072 V 250.6401 h -1.060357 c -3.419526,0 -4.987232,0.7458 -5.971486,1.92285 -0.862493,1.10095 -1.730058,3.54128 -1.730058,5.85987 h -0.588524 v -8.41183 H 68.98412 Z m 0,0"
     style="fill:#ffffff;fill-opacity:1;fill-rule:nonzero;stroke:#ffffff;stroke-width:0.801366;stroke-linecap:butt;stroke-linejoin:miter;stroke-miterlimit:10;stroke-opacity:1" />
  <path
     id="path19927"
     d="m 81.21121,267.85442 -3.89136,-12.57715 -4.24143,12.57715 z m -14.85515,9.08154 h 0.55301 c 1.88226,0 2.43527,-0.7103 2.9832,-2.52153 l 8.56404,-24.71292 h 1.45609 l 8.76697,27.23445 h 2.35409 V 277.56 H 80.93724 v -0.62404 h 3.18108 l -2.63314,-8.21905 h -8.72132 l -2.1613,6.48391 c -0.5175,1.64888 0.39066,1.64888 2.79041,1.73514 V 277.56 h -7.03691 z m 0,0"
     style="fill:#ffffff;fill-opacity:1;fill-rule:nonzero;stroke:#ffffff;stroke-width:0.801366;stroke-linecap:butt;stroke-linejoin:miter;stroke-miterlimit:10;stroke-opacity:1" />
  <path
     id="path19929"
     d="m 97.06076,262.90271 h 1.02484 c 5.93091,0 7.77765,-1.92793 7.77765,-6.05267 0,-4.35812 -1.68439,-6.20994 -6.32155,-6.20994 h -2.48094 z m 18.0971,14.64713 -5.26119,0.0253 c -1.73006,0 -3.20644,-0.0964 -4.1907,-2.01924 -0.86248,-1.68947 -0.78639,-4.28202 -1.17704,-7.42758 -0.47183,-3.61231 -1.57278,-4.59658 -6.28604,-4.59658 h -1.18213 v 13.39907 h 3.02887 v 0.62912 H 89.91222 v -0.62912 h 2.70925 v -26.29078 h -2.70925 v -0.62911 h 10.95872 c 6.36723,0 9.90852,2.28307 9.90852,6.5245 0,3.73408 -3.5007,6.12877 -8.60971,6.60567 4.83504,0.70015 7.19421,3.0238 7.46817,6.95067 0.31456,4.60164 0.33992,6.61074 2.46063,6.61074 l 0.82698,0.0253 1.73006,0.0508 -1.4155,0.77117"
     style="fill:#ffffff;fill-opacity:1;fill-rule:nonzero;stroke:#ffffff;stroke-width:0.801366;stroke-linecap:butt;stroke-linejoin:miter;stroke-miterlimit:10;stroke-opacity:1" />
  <path
     id="path19931"
     d="m 136.93325,276.93088 h 2.67372 V 250.6401 h -2.67372 v -0.62911 h 9.90344 v 0.62911 h -2.79042 v 12.22202 h 10.53254 V 250.6401 h -2.79041 v -0.62911 h 9.90344 v 0.62911 h -2.67373 v 26.29078 h 2.67373 V 277.56 h -9.90344 v -0.62912 h 2.79041 v -13.08451 h -10.53254 v 13.08451 h 2.79042 V 277.56 h -9.90344 z m 0,0"
     style="fill:#ffffff;fill-opacity:1;fill-rule:nonzero;stroke:#ffffff;stroke-width:0.801366;stroke-linecap:butt;stroke-linejoin:miter;stroke-miterlimit:10;stroke-opacity:1" />
  <path
     id="path19933"
     d="m 176.32883,250.20885 c -4.99231,0 -8.48794,3.06439 -8.48794,13.56142 0,10.56806 3.46011,13.55634 8.48794,13.55634 5.0684,0 8.48792,-3.02886 8.48792,-13.55634 0,-10.49703 -3.41952,-13.56142 -8.48792,-13.56142 m 0,27.86357 c -6.25053,0 -13.24178,-4.87562 -13.24178,-14.30215 0,-9.43668 6.99125,-14.30722 13.27729,-14.30722 6.25053,0 13.24686,4.83503 13.24686,14.30722 0,9.42653 -6.99633,14.30215 -13.28237,14.30215"
     style="fill:#ffffff;fill-opacity:1;fill-rule:nonzero;stroke:none;stroke-width:1.29881" />
  <path
     id="path19935"
     d="m 176.32883,250.20885 c -4.99231,0 -8.48794,3.06439 -8.48794,13.56142 0,10.56806 3.46011,13.55634 8.48794,13.55634 5.0684,0 8.48792,-3.02886 8.48792,-13.55634 0,-10.49703 -3.41952,-13.56142 -8.48792,-13.56142 z m 0,27.86357 c -6.25053,0 -13.24178,-4.87562 -13.24178,-14.30215 0,-9.43668 6.99125,-14.30722 13.27729,-14.30722 6.25053,0 13.24686,4.83503 13.24686,14.30722 0,9.42653 -6.99633,14.30215 -13.28237,14.30215 z m 0,0"
     style="fill:none;stroke:#ffffff;stroke-width:0.801366;stroke-linecap:butt;stroke-linejoin:miter;stroke-miterlimit:10;stroke-opacity:1" />
  <path
     id="path19937"
     d="m 193.7613,250.6401 h -2.47586 v -0.62911 h 19.09659 l 0.50734,6.72236 h -0.62404 c -0.47183,-5.0684 -2.52151,-6.09325 -8.02117,-6.09325 h -4.08415 v 12.57716 h 1.84675 c 3.6935,0 5.57576,-0.78639 5.57576,-4.67775 v -0.19787 h 0.5936 v 10.33468 h -0.5936 v -0.30948 c 0,-4.00805 -1.84167,-4.52047 -5.57576,-4.52047 h -1.84675 v 13.08959 h 3.81019 c 6.76295,0 9.43667,-1.57786 9.43667,-7.27538 v -0.1522 h 0.58853 V 277.56 h -20.70996 v -0.62404 h 2.47586 z m 0,0"
     style="fill:#ffffff;fill-opacity:1;fill-rule:nonzero;stroke:#ffffff;stroke-width:0.801366;stroke-linecap:butt;stroke-linejoin:miter;stroke-miterlimit:10;stroke-opacity:1" />
  <path
     id="path19939"
     d="M 221.96986,276.97147 V 277.56 h -7.62036 v -0.58853 c 2.7904,-0.1928 3.06437,-0.74581 3.06437,-3.26225 V 251.3859 l -0.6291,-0.7458 h -2.43527 v -0.62911 h 7.66094 l 13.08451,19.37563 v -15.56545 c 0,-2.62806 -0.39065,-3.01872 -3.41952,-3.18107 v -0.62911 h 7.58993 v 0.62911 c -2.79549,0.19787 -3.30284,0.71029 -3.30284,3.22166 v 23.89102 h -0.7458 l -16.94036,-25.22534 v 21.25789 c 0,2.59762 0.47183,3.02886 3.6935,3.18614"
     style="fill:#ffffff;fill-opacity:1;fill-rule:nonzero;stroke:none;stroke-width:1.29881" />
  <path
     id="path19941"
     d="M 221.96986,276.97147 V 277.56 h -7.62036 v -0.58853 c 2.7904,-0.1928 3.06437,-0.74581 3.06437,-3.26225 V 251.3859 l -0.6291,-0.7458 h -2.43527 v -0.62911 h 7.66094 l 13.08451,19.37563 v -15.56545 c 0,-2.62806 -0.39065,-3.01872 -3.41952,-3.18107 v -0.62911 h 7.58993 v 0.62911 c -2.79549,0.19787 -3.30284,0.71029 -3.30284,3.22166 v 23.89102 h -0.7458 l -16.94036,-25.22534 v 21.25789 c 0,2.59762 0.47183,3.02886 3.6935,3.18614 z m 0,0"
     style="fill:none;stroke:#ffffff;stroke-width:0.801366;stroke-linecap:butt;stroke-linejoin:miter;stroke-miterlimit:10;stroke-opacity:1" />
  <path
     id="path19943"
     d="m 251.70553,276.93088 c 3.34342,0 4.21099,-0.27397 5.38803,-2.23741 l 6.40782,-10.68981 -7.35148,-13.36356 h -2.79042 v -0.62911 h 10.218 v 0.62911 h -2.47586 l 5.22569,9.51278 3.54128,-5.93597 c 2.12071,-3.45505 1.45609,-3.45505 -1.81123,-3.57681 v -0.62911 h 7.70155 v 0.62911 c -2.79042,0 -3.37895,0.98426 -4.63717,2.91218 l -4.39871,7.3464 8.84308,16.0322 h 2.47586 V 277.56 h -10.45644 v -0.62912 h 3.02379 l -6.68177,-12.14085 -5.54024,9.27433 c -1.72499,2.90711 -0.70015,2.74983 1.85182,2.86652 V 277.56 h -8.5336 z m 0,0"
     style="fill:#ffffff;fill-opacity:1;fill-rule:nonzero;stroke:#ffffff;stroke-width:0.801366;stroke-linecap:butt;stroke-linejoin:miter;stroke-miterlimit:10;stroke-opacity:1" />
  <path
     id="path19945"
     d="m 251.20326,276.95624 v 0.62912 h -9.93388 v -0.62912 h 2.6788 v -26.38716 h -2.6788 v -0.6342 h 9.93388 v 0.6342 h -2.80056 v 26.38716 z m 0,0"
     style="fill:#ffffff;fill-opacity:1;fill-rule:nonzero;stroke:#ffffff;stroke-width:0.641613;stroke-linecap:butt;stroke-linejoin:miter;stroke-miterlimit:10;stroke-opacity:1" />
  <path
     id="path19947"
     d="m 120.97715,260.15795 c 1.13646,0.36529 2.14608,0.41603 3.36371,0.41603 4.82996,0 6.68179,-3.08976 6.68179,-8.69088 0,-6.1795 -1.97866,-9.46711 -7.77258,-9.46711 h -2.27292 z m -7.68633,16.66131 h 2.94263 v -34.40327 h -2.94263 v -0.8219 h 11.50666 c 7.43772,0 11.52188,3.49563 11.52188,9.87806 0,6.99126 -5.38297,9.91866 -12.06474,9.91866 -1.55248,0 -2.8107,-0.20294 -3.27747,-0.35515 v 15.7836 h 3.78481 v 0.82191 h -11.47114 z m 0,0"
     style="fill:#ffffff;fill-opacity:1;fill-rule:nonzero;stroke:#ffffff;stroke-width:0.641613;stroke-linecap:butt;stroke-linejoin:miter;stroke-miterlimit:10;stroke-opacity:1" />
</svg>
